<svg width="50" height="50" viewBox="0 0 50 50" fill="none" xmlns="http://www.w3.org/2000/svg">
<path d="M50 25C50 38.8071 38.8071 50 25 50C11.1929 50 0 38.8071 0 25C0 11.1929 11.1929 0 25 0C38.8071 0 50 11.1929 50 25ZM5 25C5 36.0457 13.9543 45 25 45C36.0457 45 45 36.0457 45 25C45 13.9543 36.0457 5 25 5C13.9543 5 5 13.9543 5 25Z" fill="black"/>
<path d="M32.07 17.9297C33.9447 19.805 34.9979 22.348 34.9979 24.9997C34.9979 27.6513 33.9447 30.1944 32.07 32.0697M28.54 21.4597C29.4774 22.3973 30.0039 23.6689 30.0039 24.9947C30.0039 26.3205 29.4774 27.592 28.54 28.5297M24 17.9997L19 21.9997H15V27.9997H19L24 31.9997V17.9997Z" stroke="#101828" stroke-width="3" stroke-linecap="round" stroke-linejoin="round"/>
</svg>
