<svg width="50" height="50" viewBox="0 0 50 50" fill="none" xmlns="http://www.w3.org/2000/svg">
<path d="M18 15L18.5 35" stroke="black" stroke-width="5" stroke-linecap="round"/>
<path d="M31 15L31.5 35" stroke="black" stroke-width="5" stroke-linecap="round"/>
<path d="M50 25C50 38.8071 38.8071 50 25 50C11.1929 50 0 38.8071 0 25C0 11.1929 11.1929 0 25 0C38.8071 0 50 11.1929 50 25ZM5 25C5 36.0457 13.9543 45 25 45C36.0457 45 45 36.0457 45 25C45 13.9543 36.0457 5 25 5C13.9543 5 5 13.9543 5 25Z" fill="black"/>
</svg>
