<svg width="150" height="151" viewBox="0 0 150 151" fill="none" xmlns="http://www.w3.org/2000/svg">
<path d="M75 13C40.5625 13 12.5 41.0625 12.5 75.5C12.5 109.938 40.5625 138 75 138C109.438 138 137.5 109.938 137.5 75.5C137.5 41.0625 109.438 13 75 13ZM96 89.875C97.8125 91.6875 97.8125 94.6875 96 96.5C95.0625 97.4375 93.875 97.875 92.6875 97.875C91.5 97.875 90.3125 97.4375 89.375 96.5L75 82.125L60.625 96.5C59.6875 97.4375 58.5 97.875 57.3125 97.875C56.125 97.875 54.9375 97.4375 54 96.5C52.1875 94.6875 52.1875 91.6875 54 89.875L68.375 75.5L54 61.125C52.1875 59.3125 52.1875 56.3125 54 54.5C55.8125 52.6875 58.8125 52.6875 60.625 54.5L75 68.875L89.375 54.5C91.1875 52.6875 94.1875 52.6875 96 54.5C97.8125 56.3125 97.8125 59.3125 96 61.125L81.625 75.5L96 89.875Z" fill="#FF0000"/>
</svg>
