<svg width="16" height="16" viewBox="0 0 16 16" fill="none" xmlns="http://www.w3.org/2000/svg">
<g clip-path="url(#clip0_374_330)">
<path d="M9.54065 5.33203L13.3673 11.9587M6.46065 5.33203H14.114M4.92065 7.9987L8.74732 1.37203M6.46065 10.6654L2.63398 4.0387M9.54065 10.6654H1.88732M11.0807 7.9987L7.25398 14.6254M14.6673 7.9987C14.6673 11.6806 11.6826 14.6654 8.00065 14.6654C4.31875 14.6654 1.33398 11.6806 1.33398 7.9987C1.33398 4.3168 4.31875 1.33203 8.00065 1.33203C11.6826 1.33203 14.6673 4.3168 14.6673 7.9987Z" stroke="#101828" stroke-width="2" stroke-linecap="round" stroke-linejoin="round"/>
</g>
<path d="M7.66602 4.66667L8.99935 2C11.0821 2.64921 11.8937 3.28164 12.9993 4.66667H7.66602Z" fill="#FFFF00"/>
<path d="M9.33268 6H6.66602L5.66602 8L6.66602 10H9.33268L10.3327 8L9.33268 6Z" fill="#FF0000"/>
<path d="M13.666 6H10.666L13.3327 10.6667C14.0057 9.49996 14.3169 8.10596 13.666 6Z" fill="#008000"/>
<path d="M5.00065 6.66667L7.66732 2C5.86086 2.12633 4.90378 2.57328 3.33398 4C4.11416 5.31748 4.83174 6.65369 5.00065 6.66667Z" fill="#FFA500"/>
<path d="M8.33333 11.332H3C4.07887 12.817 5.00411 13.5298 7 13.9987C7.57609 12.8809 8.26259 11.7178 8.33333 11.332Z" fill="#0000FF"/>
<path d="M2.33287 9.9987H5.33287L2.66621 5.33203C2.12301 5.76039 1.66343 8.00197 2.33287 9.9987Z" fill="#4B0082"/>
<path d="M11.0007 9.33207L8.33398 13.9987C10.4613 13.8911 11.2578 13.1495 12.6673 11.9987C11.8695 10.6541 11.1032 9.24369 11.0007 9.33207Z" fill="#00CCFF"/>
<defs>
<clipPath id="clip0_374_330">
<rect width="16" height="16" fill="white"/>
</clipPath>
</defs>
</svg>
