<svg width="56" height="56" viewBox="0 0 56 56" fill="none" xmlns="http://www.w3.org/2000/svg">
<path d="M38.9256 13.3272C39.7802 12.2427 39.5995 10.6589 38.4352 9.91687C34.367 7.32435 29.6182 5.95429 24.7589 6.00116C19.0629 6.0561 13.5565 8.05456 9.1512 11.6657C4.7459 15.2768 1.70588 20.2841 0.534403 25.8585C-0.637072 31.433 0.130247 37.2404 2.70933 42.3193C5.28842 47.3982 9.52462 51.4441 14.7166 53.7871C19.9087 56.1302 25.7451 56.6299 31.2599 55.2036C36.7747 53.7773 41.637 50.5104 45.042 45.9439C47.9468 42.0481 49.6423 37.4056 49.9493 32.5913C50.0372 31.2134 48.865 30.1331 47.4852 30.1832C46.1054 30.2334 45.0437 31.3963 44.9214 32.7716C44.5948 36.4444 43.257 39.9731 41.0336 42.9551C38.3096 46.6084 34.4197 49.2218 30.0079 50.3629C25.5961 51.5039 20.9269 51.1041 16.7733 49.2297C12.6197 47.3552 9.23074 44.1186 7.16747 40.0554C5.1042 35.9923 4.49034 31.3464 5.42752 26.8868C6.3647 22.4273 8.79672 18.4215 12.321 15.5326C15.8452 12.6436 20.2503 11.0449 24.8071 11.0009C28.5266 10.9651 32.165 11.9669 35.3232 13.8701C36.5057 14.5828 38.0711 14.4117 38.9256 13.3272Z" fill="black"/>
<path d="M45.428 25.9247C45.4951 26.6916 44.7069 27.2435 44.0092 26.9182L27.5266 19.2322C26.8289 18.9069 26.745 17.9483 27.3756 17.5068L42.2732 7.07539C42.9038 6.63385 43.7758 7.04051 43.8429 7.80739L45.428 25.9247Z" fill="black"/>
</svg>
