<svg width="150" height="151" viewBox="0 0 150 151" fill="none" xmlns="http://www.w3.org/2000/svg">
<path d="M75 13C40.5625 13 12.5 41.0625 12.5 75.5C12.5 109.938 40.5625 138 75 138C109.438 138 137.5 109.938 137.5 75.5C137.5 41.0625 109.438 13 75 13ZM104.875 61.125L69.4375 96.5625C68.5625 97.4375 67.375 97.9375 66.125 97.9375C64.875 97.9375 63.6875 97.4375 62.8125 96.5625L45.125 78.875C43.3125 77.0625 43.3125 74.0625 45.125 72.25C46.9375 70.4375 49.9375 70.4375 51.75 72.25L66.125 86.625L98.25 54.5C100.063 52.6875 103.063 52.6875 104.875 54.5C106.688 56.3125 106.688 59.25 104.875 61.125Z" fill="#00CC00"/>
</svg>
